<?xml version="1.0" encoding="UTF-8" ?>
<!DOCTYPE svg PUBLIC "-//W3C//DTD SVG 1.1//EN" "http://www.w3.org/Graphics/SVG/1.1/DTD/svg11.dtd">
<svg width="300pt" height="300pt" viewBox="0 0 300 300" version="1.1" xmlns="http://www.w3.org/2000/svg">
<g id="#ffffffff">
<path fill="#ffffff" opacity="1.00" d=" M 39.22 99.21 C 50.77 91.14 66.29 89.10 79.56 93.78 C 87.57 96.67 93.49 103.57 96.39 111.44 C 103.60 101.33 114.52 93.56 126.98 91.80 C 136.88 90.55 147.82 91.71 155.87 98.11 C 164.50 104.89 167.87 116.37 167.85 126.98 C 167.95 153.38 167.82 179.77 167.91 206.17 C 157.84 206.19 147.77 206.18 137.70 206.17 C 137.23 185.10 138.09 164.04 137.88 142.97 C 137.79 135.92 138.59 127.93 133.91 122.04 C 129.78 116.67 122.19 115.79 115.98 117.10 C 108.95 118.79 103.57 123.98 98.88 129.19 C 98.73 154.85 98.82 180.51 98.84 206.17 C 88.83 206.19 78.82 206.18 68.81 206.18 C 68.80 182.76 68.84 159.34 68.79 135.92 C 68.79 130.45 67.71 124.46 63.62 120.50 C 59.20 116.41 52.58 115.92 46.94 117.16 C 40.00 118.80 34.68 123.91 30.13 129.12 C 30.17 154.81 30.17 180.49 30.19 206.18 C 20.13 206.18 10.06 206.18 0.00 206.18 L 0.00 94.57 C 10.05 94.64 20.09 94.55 30.14 94.62 C 30.18 98.80 30.22 102.99 29.96 107.17 C 32.95 104.42 35.81 101.47 39.22 99.21 Z" />
<path fill="#ffffff" opacity="1.00" d=" M 227.82 92.94 C 243.72 89.23 261.32 91.84 274.84 101.21 C 287.98 110.01 296.58 124.78 298.79 140.34 C 299.97 146.87 299.38 153.52 299.52 160.11 C 270.88 159.69 242.22 160.03 213.58 159.94 C 215.78 171.35 224.84 181.03 236.13 183.85 C 250.17 187.27 265.86 183.14 276.64 173.56 C 281.41 179.55 286.70 185.12 291.60 191.02 C 279.43 203.24 261.99 208.83 245.03 209.16 C 227.92 209.64 210.32 203.19 198.65 190.46 C 179.98 170.53 178.60 137.50 194.29 115.42 C 202.19 104.13 214.38 95.96 227.82 92.94 M 222.99 120.98 C 217.47 126.04 214.50 133.20 212.99 140.39 C 213.47 140.49 214.43 140.69 214.91 140.79 C 233.91 140.80 252.91 140.80 271.91 140.79 C 271.00 129.98 263.96 119.44 253.58 115.67 C 243.45 111.88 231.03 113.48 222.99 120.98 Z" />
</g>
</svg>
