<?xml version="1.0" encoding="UTF-8" ?>
<!DOCTYPE svg PUBLIC "-//W3C//DTD SVG 1.1//EN" "http://www.w3.org/Graphics/SVG/1.1/DTD/svg11.dtd">
<svg width="300pt" height="300pt" viewBox="0 0 300 300" version="1.1" xmlns="http://www.w3.org/2000/svg">
<g id="#ffffffff">
<path fill="#ffffff" opacity="1.00" d=" M 0.00 54.58 C 29.99 54.52 59.98 54.53 89.97 54.57 C 102.21 54.96 114.91 56.41 125.82 62.37 C 135.08 67.24 141.81 76.30 144.19 86.45 C 146.48 96.74 146.67 107.88 142.93 117.87 C 139.11 128.07 130.26 135.49 120.64 140.08 C 130.28 142.96 139.52 148.33 145.32 156.75 C 153.57 168.32 155.70 183.30 153.73 197.15 C 152.00 210.14 144.64 222.31 133.81 229.73 C 121.08 238.65 105.27 242.00 89.95 242.27 C 59.96 242.26 29.98 242.29 0.00 242.25 L 0.00 54.58 M 40.43 86.44 C 40.58 101.09 40.54 115.75 40.45 130.40 C 54.31 130.43 68.18 130.40 82.04 130.42 C 89.01 130.39 96.41 128.51 101.48 123.45 C 105.64 119.14 106.71 112.83 106.53 107.06 C 106.58 101.68 104.69 96.12 100.57 92.53 C 94.93 87.70 87.23 86.61 80.06 86.40 C 66.85 86.41 53.64 86.34 40.43 86.44 M 40.44 158.52 C 40.57 175.81 40.53 193.09 40.46 210.38 C 54.97 210.39 69.49 210.40 84.00 210.37 C 90.82 210.21 97.96 209.39 103.94 205.85 C 109.52 202.61 113.20 196.51 113.69 190.09 C 114.27 182.32 113.93 173.60 108.67 167.33 C 103.04 160.96 94.16 158.69 85.94 158.52 C 70.77 158.47 55.60 158.48 40.44 158.52 Z" />
<path fill="#ffffff" opacity="1.00" d=" M 195.70 67.07 C 220.58 67.13 245.46 67.13 270.34 67.07 C 270.35 73.22 270.29 79.36 270.37 85.50 C 245.47 85.46 220.57 85.45 195.67 85.51 C 195.73 79.36 195.68 73.22 195.70 67.07 Z" />
<path fill="#ffffff" opacity="1.00" d=" M 215.88 104.89 C 226.45 102.09 237.64 101.84 248.38 103.73 C 263.73 106.49 277.60 115.96 286.17 128.94 C 296.95 144.72 300.54 164.45 299.34 183.28 C 267.26 183.27 235.19 183.28 203.11 183.27 C 203.19 192.47 205.47 202.21 211.72 209.23 C 219.61 217.50 232.09 218.86 242.86 217.32 C 252.24 215.46 261.52 209.40 264.99 200.19 C 275.68 200.24 286.38 200.02 297.07 200.30 C 293.24 211.33 288.09 222.32 279.37 230.36 C 267.44 241.30 250.86 245.83 234.95 245.73 C 220.12 245.92 204.98 242.02 192.94 233.15 C 179.60 223.40 171.19 208.05 168.03 192.01 C 164.68 174.13 166.31 154.98 174.54 138.59 C 182.69 122.15 198.19 109.65 215.88 104.89 M 214.00 136.85 C 206.92 142.22 203.76 151.17 203.06 159.75 C 223.00 159.79 242.95 159.81 262.90 159.74 C 262.04 151.88 259.66 143.79 254.12 137.91 C 250.27 133.67 244.57 131.68 239.02 130.89 C 230.37 129.81 220.85 131.02 214.00 136.85 Z" />
</g>
</svg>
