<?xml version="1.0" encoding="UTF-8" ?>
<!DOCTYPE svg PUBLIC "-//W3C//DTD SVG 1.1//EN" "http://www.w3.org/Graphics/SVG/1.1/DTD/svg11.dtd">
<svg width="573pt" height="573pt" viewBox="0 0 573 573" version="1.1" xmlns="http://www.w3.org/2000/svg">
<g id="#ffffffff">
<path fill="#ffffff" opacity="1.00" d=" M 163.79 27.63 C 211.82 4.71 266.34 -4.14 319.18 1.94 C 383.18 8.98 444.27 38.75 489.54 84.49 C 514.53 109.59 534.84 139.35 549.03 171.81 C 564.85 207.75 572.81 247.00 573.00 286.24 L 573.00 286.66 C 572.83 328.37 563.81 370.09 546.01 407.85 C 520.57 462.44 477.36 508.51 424.57 537.50 C 391.19 555.93 354.08 567.54 316.14 571.40 C 271.28 576.04 225.31 570.06 183.25 553.74 C 151.42 541.45 121.85 523.37 96.36 500.70 C 55.79 464.77 25.69 417.12 10.96 364.95 C 3.68 339.55 0.22 313.14 0.00 286.75 L 0.00 286.28 C 0.16 240.27 11.23 194.28 32.74 153.56 C 61.31 98.90 108.03 53.99 163.79 27.63 M 280.41 110.70 C 276.16 112.89 272.40 115.88 268.36 118.42 C 217.77 152.15 167.18 185.87 116.59 219.61 C 112.09 222.42 109.25 227.62 109.41 232.94 C 109.41 268.64 109.42 304.34 109.41 340.04 C 109.24 345.35 112.08 350.54 116.55 353.38 C 170.36 389.25 224.17 425.13 277.98 461.00 C 282.98 464.43 289.99 464.46 294.99 461.01 C 348.80 425.14 402.61 389.27 456.42 353.40 C 460.90 350.58 463.75 345.38 463.59 340.06 C 463.58 304.34 463.60 268.62 463.58 232.90 C 463.74 227.60 460.89 222.42 456.41 219.61 C 402.78 183.86 349.15 148.10 295.52 112.35 C 291.20 109.26 285.29 108.44 280.41 110.70 Z" />
<path fill="#ffffff" opacity="1.00" d=" M 152.03 232.57 C 191.77 206.05 231.54 179.56 271.29 153.06 C 271.29 176.72 271.30 200.38 271.29 224.04 C 249.29 238.76 227.30 253.50 205.27 268.19 C 187.53 256.31 169.78 244.43 152.03 232.57 Z" />
<path fill="#ffffff" opacity="1.00" d=" M 301.71 153.06 C 341.47 179.56 381.22 206.05 420.97 232.57 C 403.22 244.44 385.47 256.32 367.72 268.19 C 345.71 253.49 323.71 238.76 301.71 224.04 C 301.70 200.38 301.71 176.72 301.71 153.06 Z" />
<path fill="#ffffff" opacity="1.00" d=" M 232.67 286.50 C 250.59 274.49 268.55 262.54 286.45 250.50 C 304.44 262.45 322.36 274.51 340.33 286.49 C 322.47 298.53 304.46 310.34 286.68 322.49 C 268.55 310.70 250.70 298.47 232.67 286.50 Z" />
<path fill="#ffffff" opacity="1.00" d=" M 139.83 261.03 C 152.53 269.51 165.22 278.02 177.92 286.50 C 165.23 294.99 152.53 303.49 139.83 311.97 C 139.82 294.99 139.82 278.01 139.83 261.03 Z" />
<path fill="#ffffff" opacity="1.00" d=" M 395.09 286.50 C 407.79 278.01 420.47 269.51 433.17 261.03 C 433.18 278.01 433.18 294.99 433.17 311.97 C 420.47 303.48 407.77 295.00 395.09 286.50 Z" />
<path fill="#ffffff" opacity="1.00" d=" M 152.04 340.48 C 169.74 328.53 187.54 316.73 205.27 304.83 C 227.30 319.51 249.29 334.25 271.29 348.97 C 271.29 372.63 271.30 396.29 271.29 419.94 C 231.53 393.47 191.81 366.93 152.04 340.48 Z" />
<path fill="#ffffff" opacity="1.00" d=" M 301.71 348.97 C 323.72 334.25 345.70 319.50 367.74 304.83 C 385.46 316.74 403.27 328.53 420.96 340.49 C 381.18 366.92 341.47 393.48 301.71 419.94 C 301.70 396.29 301.71 372.63 301.71 348.97 Z" />
</g>
</svg>
