<?xml version="1.0" encoding="UTF-8" ?>
<!DOCTYPE svg PUBLIC "-//W3C//DTD SVG 1.1//EN" "http://www.w3.org/Graphics/SVG/1.1/DTD/svg11.dtd">
<svg width="300pt" height="300pt" viewBox="0 0 300 300" version="1.1" xmlns="http://www.w3.org/2000/svg">
<g id="#ffffffff">
<path fill="#ffffff" opacity="1.00" d=" M 187.11 0.00 L 242.29 0.00 C 242.71 18.11 242.28 36.27 242.51 54.39 C 223.84 89.07 206.04 124.26 187.57 159.05 L 187.53 159.88 C 188.96 161.70 190.49 163.44 191.95 165.24 C 208.77 165.20 225.60 165.32 242.42 165.17 C 242.48 190.05 242.48 214.94 242.42 239.82 C 211.86 239.67 181.31 239.84 150.76 239.74 C 147.99 241.65 145.10 243.39 142.46 245.48 C 134.03 261.69 125.53 277.87 117.04 294.06 C 115.12 296.10 113.15 298.12 111.06 300.00 L 57.62 300.00 C 57.38 299.02 57.30 298.03 57.37 297.03 C 57.40 279.81 57.34 262.58 57.40 245.36 C 75.70 210.35 94.06 175.35 112.21 140.25 C 110.68 138.48 109.20 136.67 107.76 134.82 C 91.00 134.74 74.22 134.67 57.45 134.86 C 57.33 109.96 57.30 85.03 57.47 60.13 C 87.96 60.36 118.47 60.19 148.97 60.22 C 151.60 58.34 154.35 56.62 156.96 54.71 C 165.03 39.48 172.94 24.16 180.99 8.92 C 182.53 5.18 185.71 2.37 188.84 0.01 L 187.11 0.00 Z" />
</g>
</svg>
