<?xml version="1.0" encoding="UTF-8" ?>
<!DOCTYPE svg PUBLIC "-//W3C//DTD SVG 1.1//EN" "http://www.w3.org/Graphics/SVG/1.1/DTD/svg11.dtd">
<svg width="139pt" height="139pt" viewBox="0 0 139 139" version="1.1" xmlns="http://www.w3.org/2000/svg">
<g id="#ffffffff">
<path fill="#ffffff" opacity="1.00" d=" M 40.74 9.77 C 53.59 2.86 68.76 0.47 83.14 2.90 C 98.90 5.49 113.52 14.06 123.63 26.41 C 132.79 37.44 138.09 51.44 139.00 65.72 L 139.00 73.07 C 138.14 87.90 132.46 102.44 122.71 113.69 C 110.68 127.83 92.55 136.60 73.96 136.99 C 57.58 137.57 41.15 131.69 28.72 121.03 C 19.14 122.31 9.57 123.64 0.00 124.94 L 0.00 123.12 L 0.01 124.75 C 3.68 115.63 7.47 106.56 11.04 97.39 C 3.53 80.99 3.08 61.55 9.67 44.77 C 15.43 29.91 26.65 17.24 40.74 9.77 M 45.63 35.82 C 45.62 58.30 45.62 80.77 45.63 103.24 C 55.40 103.15 65.18 103.48 74.95 103.03 C 86.34 102.38 98.08 97.06 103.97 86.90 C 111.17 74.35 110.10 56.76 99.79 46.19 C 92.86 39.07 82.71 36.09 72.99 35.85 C 63.87 35.78 54.75 35.83 45.63 35.82 Z" />
<path fill="#ffffff" opacity="1.00" d=" M 63.98 52.31 C 70.04 52.40 76.59 51.60 82.06 54.85 C 92.70 60.78 92.43 79.15 81.40 84.54 C 76.02 87.39 69.78 86.58 63.94 86.69 C 63.97 75.23 63.88 63.77 63.98 52.31 Z" />
</g>
</svg>
