<?xml version="1.0" encoding="UTF-8" ?>
<!DOCTYPE svg PUBLIC "-//W3C//DTD SVG 1.1//EN" "http://www.w3.org/Graphics/SVG/1.1/DTD/svg11.dtd">
<svg width="300pt" height="300pt" viewBox="0 0 300 300" version="1.1" xmlns="http://www.w3.org/2000/svg">
<g id="#ffffffff">
<path fill="#ffffff" opacity="1.00" d=" M 128.54 1.82 C 155.61 -2.03 183.73 1.56 208.85 12.42 C 240.90 26.17 267.87 51.45 283.53 82.63 C 297.83 110.60 302.78 143.17 297.70 174.15 C 292.78 204.88 277.85 233.84 255.85 255.83 C 234.34 277.42 206.17 292.33 176.12 297.58 C 146.10 302.93 114.46 298.91 86.82 285.98 C 56.57 271.93 31.28 247.52 16.22 217.75 C 2.63 191.18 -2.58 160.46 1.28 130.88 C 5.52 97.11 21.88 65.06 46.61 41.70 C 68.89 20.32 97.96 6.15 128.54 1.82 M 119.87 25.89 C 137.34 49.82 153.35 74.83 167.60 100.80 C 193.11 91.06 217.72 76.42 234.67 54.60 C 223.08 44.36 209.67 36.16 195.20 30.66 C 171.32 21.55 144.71 19.90 119.87 25.89 M 24.60 124.07 C 64.47 123.93 104.31 118.54 142.88 108.49 C 128.42 82.99 112.56 58.29 95.44 34.50 C 59.60 51.21 32.51 85.29 24.60 124.07 M 177.44 119.83 C 181.43 128.10 185.23 136.46 188.69 144.97 C 218.35 141.46 248.50 143.50 277.78 149.07 C 277.57 120.25 267.21 91.66 248.89 69.40 C 230.32 92.42 204.48 108.54 177.44 119.83 M 21.95 146.40 C 20.83 178.99 32.90 211.69 54.78 235.85 C 60.84 225.83 68.01 216.53 75.74 207.75 C 99.23 181.12 129.48 159.74 163.83 149.88 C 160.50 142.58 157.13 135.30 153.46 128.17 C 110.83 140.65 66.33 146.42 21.95 146.40 M 196.47 165.14 C 207.18 194.81 215.75 225.30 221.34 256.36 C 250.33 236.88 270.76 205.15 276.17 170.60 C 250.41 163.19 223.00 161.05 196.47 165.14 M 97.12 217.10 C 87.08 227.27 77.92 238.51 71.31 251.24 C 87.47 263.80 106.63 272.53 126.80 276.14 C 151.24 280.65 176.95 277.80 199.82 268.08 C 193.88 234.96 184.52 202.47 172.52 171.03 C 144.47 180.70 118.17 196.07 97.12 217.10 Z" />
</g>
</svg>
