<?xml version="1.0" encoding="UTF-8" ?>
<!DOCTYPE svg PUBLIC "-//W3C//DTD SVG 1.1//EN" "http://www.w3.org/Graphics/SVG/1.1/DTD/svg11.dtd">
<svg width="300pt" height="300pt" viewBox="0 0 300 300" version="1.1" xmlns="http://www.w3.org/2000/svg">
<g id="#ffffffff">
<path fill="#ffffff" opacity="1.00" d=" M 15.42 0.00 L 284.81 0.00 C 292.76 0.60 299.51 7.47 300.00 15.42 L 300.00 284.53 C 299.56 292.38 293.01 299.12 285.23 300.00 L 207.17 300.00 C 207.06 262.34 207.16 224.68 207.12 187.03 C 207.04 186.17 206.89 184.44 206.81 183.58 C 219.97 183.66 233.13 183.45 246.29 183.69 C 247.86 168.64 250.34 153.69 251.96 138.64 C 236.96 138.64 221.97 138.67 206.97 138.63 C 207.37 127.76 206.91 116.87 207.22 105.99 C 207.42 101.36 208.72 96.50 212.08 93.13 C 216.34 89.19 222.41 88.15 228.02 88.17 C 236.63 88.18 245.24 88.12 253.84 88.21 C 253.88 74.33 253.84 60.46 253.86 46.58 C 246.27 45.85 238.66 45.31 231.03 45.23 C 216.17 44.09 200.36 44.86 187.09 52.37 C 175.05 58.88 166.54 70.84 163.05 83.95 C 160.83 91.76 160.24 99.94 160.36 108.03 C 160.41 118.24 160.27 128.46 160.44 138.68 C 147.33 138.59 134.22 138.71 121.11 138.61 C 121.14 153.60 121.21 168.60 121.07 183.59 C 134.19 183.55 147.30 183.65 160.41 183.54 C 160.35 222.36 160.29 261.18 160.44 300.00 L 15.48 300.00 C 7.41 299.57 0.47 292.62 0.00 284.57 L 0.00 15.50 C 0.43 7.43 7.36 0.47 15.42 0.00 Z" />
</g>
</svg>
