<?xml version="1.0" encoding="UTF-8" ?>
<!DOCTYPE svg PUBLIC "-//W3C//DTD SVG 1.1//EN" "http://www.w3.org/Graphics/SVG/1.1/DTD/svg11.dtd">
<svg width="220pt" height="220pt" viewBox="0 0 220 220" version="1.1" xmlns="http://www.w3.org/2000/svg">
<g id="#ffffffff">
<path fill="#ffffff" opacity="1.00" d=" M 47.22 60.21 C 59.32 59.45 71.60 63.36 81.06 70.93 C 90.97 78.71 97.80 90.35 99.55 102.85 C 101.68 116.29 97.65 130.51 89.08 141.04 C 80.00 152.48 65.71 159.66 51.07 159.81 C 41.03 160.06 30.95 157.12 22.61 151.53 C 10.55 143.63 2.10 130.31 0.49 115.94 C -1.02 103.89 2.12 91.34 9.17 81.46 C 17.78 69.12 32.15 60.94 47.22 60.21 Z" />
<path fill="#ffffff" opacity="1.00" d=" M 167.19 60.19 C 180.23 59.42 193.46 64.09 203.15 72.85 C 212.64 81.26 218.81 93.38 219.72 106.05 C 220.86 119.20 216.38 132.68 207.66 142.57 C 199.43 152.12 187.50 158.44 174.93 159.62 C 161.94 161.03 148.50 156.97 138.40 148.69 C 127.92 140.28 121.11 127.50 120.02 114.10 C 118.94 101.80 122.78 89.12 130.44 79.43 C 139.16 68.13 152.92 60.86 167.19 60.19 Z" />
</g>
</svg>
