<?xml version="1.0" encoding="UTF-8" ?>
<!DOCTYPE svg PUBLIC "-//W3C//DTD SVG 1.1//EN" "http://www.w3.org/Graphics/SVG/1.1/DTD/svg11.dtd">
<svg width="300pt" height="300pt" viewBox="0 0 300 300" version="1.1" xmlns="http://www.w3.org/2000/svg">
<g id="#ffffffff">
<path fill="#ffffff" opacity="1.00" d=" M 67.81 0.00 L 232.92 0.00 C 238.91 0.32 245.29 1.08 250.31 4.68 C 254.71 7.67 256.99 12.98 257.45 18.15 C 258.47 25.48 256.82 32.80 255.36 39.95 C 245.88 85.67 236.60 131.43 226.85 177.09 C 224.96 184.38 224.66 192.55 219.70 198.63 C 215.77 203.62 209.13 205.28 203.05 205.30 C 187.01 205.34 170.96 205.27 154.91 205.32 C 150.77 205.16 148.14 208.82 145.65 211.56 C 122.35 237.63 98.82 263.49 75.42 289.47 C 72.33 292.75 69.59 296.69 65.23 298.40 C 59.75 300.65 52.91 300.57 48.00 296.98 C 43.60 293.82 41.68 288.23 41.44 283.01 C 41.41 197.67 41.47 112.33 41.42 27.00 C 41.01 19.26 44.13 11.17 50.19 6.21 C 55.12 2.12 61.56 0.53 67.81 0.00 M 79.29 31.05 C 76.10 32.74 74.79 36.55 74.74 39.96 C 74.75 107.78 74.76 175.61 74.74 243.43 C 76.31 242.87 77.07 241.28 78.09 240.08 C 92.90 220.91 107.76 201.76 122.67 182.65 C 125.22 179.56 127.39 175.88 131.13 174.08 C 135.11 172.10 139.65 172.38 143.96 172.15 C 159.04 172.07 174.12 172.19 189.20 172.09 C 193.48 171.81 196.28 167.79 197.04 163.89 C 199.66 151.48 202.17 139.05 204.64 126.61 C 205.60 122.04 201.53 117.79 197.06 117.71 C 179.02 117.68 160.98 117.71 142.93 117.70 C 135.90 117.63 130.41 110.84 130.30 104.09 C 130.39 99.67 129.56 94.84 131.92 90.84 C 134.11 86.85 138.66 84.53 143.12 84.45 C 164.07 84.45 185.03 84.44 205.98 84.46 C 210.54 84.63 214.26 80.39 214.89 76.10 C 217.24 64.76 219.63 53.43 221.98 42.09 C 223.53 36.49 218.86 30.26 213.06 30.22 C 171.03 30.17 129.00 30.23 86.98 30.19 C 84.41 30.21 81.66 29.81 79.29 31.05 Z" />
</g>
</svg>
