<?xml version="1.0" encoding="UTF-8" ?>
<!DOCTYPE svg PUBLIC "-//W3C//DTD SVG 1.1//EN" "http://www.w3.org/Graphics/SVG/1.1/DTD/svg11.dtd">
<svg width="220pt" height="220pt" viewBox="0 0 220 220" version="1.1" xmlns="http://www.w3.org/2000/svg">
<g id="#ffffffff">
<path fill="#ffffff" opacity="1.00" d=" M 40.38 27.34 C 59.97 11.02 85.45 1.98 110.94 2.32 C 135.58 2.40 160.07 11.23 179.11 26.86 C 200.28 43.94 214.68 69.17 218.52 96.11 C 222.09 120.14 217.51 145.34 205.44 166.45 C 192.28 189.76 170.34 208.06 144.89 216.41 C 141.74 217.62 137.53 215.69 137.31 212.11 C 137.19 201.09 137.47 190.07 137.33 179.05 C 137.06 172.35 134.98 165.34 129.92 160.68 C 143.41 159.29 157.69 155.53 167.34 145.38 C 177.26 134.96 180.16 119.91 179.94 105.97 C 180.09 95.33 175.94 84.80 168.75 76.99 C 172.25 67.56 171.21 56.98 167.64 47.73 C 156.47 47.07 146.50 53.39 137.45 59.15 C 119.64 54.23 100.48 54.20 82.68 59.16 C 73.71 53.49 63.90 47.24 52.88 47.70 C 48.38 56.54 48.01 67.62 51.34 77.00 C 44.13 84.79 40.00 95.32 40.12 105.95 C 39.91 119.88 42.79 134.91 52.69 145.34 C 62.29 155.50 76.54 159.37 90.03 160.74 C 85.69 164.59 84.11 170.27 82.72 175.67 C 76.28 178.43 68.62 179.60 62.03 176.65 C 58.24 174.96 54.77 172.18 52.82 168.47 C 52.33 168.92 51.84 169.36 51.34 169.81 C 51.04 170.37 50.43 171.48 50.13 172.03 C 48.41 171.40 46.15 167.95 49.08 167.57 L 50.12 168.44 C 50.70 168.03 51.29 167.63 51.89 167.23 C 48.10 161.31 42.42 155.76 35.08 155.12 C 33.10 155.06 30.43 154.90 29.24 156.84 C 29.60 159.27 32.20 160.54 33.98 161.94 C 39.65 165.49 43.19 171.49 45.67 177.55 C 47.31 181.77 50.43 185.31 54.22 187.75 C 62.66 193.13 73.32 192.84 82.75 190.76 C 82.62 197.86 82.92 204.96 82.78 212.06 C 82.59 215.67 78.33 217.61 75.18 216.41 C 49.48 207.96 27.37 189.38 14.25 165.76 C 2.77 145.32 -1.77 121.12 1.32 97.90 C 4.73 70.54 19.06 44.78 40.38 27.34 Z" />
<path fill="#ffffff" opacity="1.00" d=" M 39.10 158.39 C 40.23 157.55 42.19 158.53 42.21 159.92 C 41.61 162.02 37.63 160.14 39.10 158.39 Z" />
<path fill="#ffffff" opacity="1.00" d=" M 46.92 164.83 C 44.82 166.78 41.58 162.53 44.90 161.46 C 45.65 162.52 46.68 163.48 46.92 164.83 Z" />
<path fill="#ffffff" opacity="1.00" d=" M 52.72 174.66 C 54.19 172.72 56.18 174.65 57.06 176.08 C 57.15 179.63 52.22 177.24 52.72 174.66 Z" />
<path fill="#ffffff" opacity="1.00" d=" M 60.32 179.21 C 62.24 177.70 64.31 179.54 65.56 180.98 C 63.95 182.96 59.34 182.17 60.32 179.21 Z" />
<path fill="#ffffff" opacity="1.00" d=" M 78.34 179.57 C 79.77 178.52 82.15 179.03 82.37 180.98 C 81.25 182.03 79.52 183.04 78.04 182.03 C 76.92 181.53 77.23 179.90 78.34 179.57 Z" />
<path fill="#ffffff" opacity="1.00" d=" M 69.29 182.65 C 67.87 179.59 72.73 179.91 74.36 181.11 C 73.66 183.22 71.01 184.31 69.29 182.65 Z" />
</g>
</svg>
