<?xml version="1.0" encoding="UTF-8" ?>
<!DOCTYPE svg PUBLIC "-//W3C//DTD SVG 1.1//EN" "http://www.w3.org/Graphics/SVG/1.1/DTD/svg11.dtd">
<svg width="299pt" height="300pt" viewBox="0 0 299 300" version="1.1" xmlns="http://www.w3.org/2000/svg">
<g id="#ffffffff">
<path fill="#ffffff" opacity="1.00" d=" M 0.25 14.23 C 1.02 6.51 8.38 0.38 16.07 0.64 C 104.71 0.56 193.35 0.62 281.98 0.61 C 287.07 0.39 292.32 2.43 295.47 6.53 C 298.59 10.11 299.07 15.05 299.00 19.63 L 299.00 263.83 C 298.91 269.59 298.72 281.11 298.62 286.88 C 297.30 293.29 291.89 298.52 285.43 299.62 C 277.31 299.71 261.06 299.90 252.94 300.00 L 51.67 300.00 C 42.07 299.90 22.88 299.70 13.28 299.60 C 6.97 298.50 1.92 293.27 0.40 287.17 C 0.30 282.01 0.10 271.68 0.00 266.52 L 0.00 22.29 C 0.06 20.27 0.19 16.25 0.25 14.23 M 82.12 68.17 C 70.54 76.88 65.17 91.84 65.51 105.99 C 65.48 120.19 73.71 133.94 86.12 140.79 C 95.70 146.39 107.12 147.21 117.94 146.20 C 116.76 149.02 115.39 151.89 115.46 155.04 C 114.86 162.08 118.52 168.72 123.32 173.61 C 109.17 174.83 94.72 176.03 81.43 181.45 C 72.31 185.25 63.47 190.85 58.03 199.31 C 52.08 208.02 50.37 219.67 54.48 229.50 C 58.84 240.48 69.32 247.71 80.18 251.35 C 94.97 256.20 110.95 256.42 126.25 254.23 C 143.03 251.61 160.01 244.34 170.64 230.62 C 179.01 220.11 182.00 205.26 177.19 192.57 C 173.89 183.47 166.45 176.82 159.24 170.76 C 154.37 166.58 148.84 163.22 144.25 158.72 C 141.40 156.00 139.89 151.71 141.10 147.86 C 142.34 143.43 145.83 140.13 149.19 137.20 C 154.44 133.09 159.73 128.85 163.59 123.34 C 170.41 114.01 171.85 101.59 169.36 90.50 C 167.25 80.72 161.01 72.09 152.91 66.35 C 158.06 66.43 163.21 66.35 168.37 66.41 C 174.37 62.45 180.71 59.02 186.57 54.85 C 167.40 54.45 148.20 54.81 129.02 54.67 C 112.63 54.85 95.44 58.01 82.12 68.17 M 209.65 113.34 C 209.84 122.08 209.52 130.84 209.83 139.58 C 201.06 139.53 192.29 139.62 183.52 139.53 C 183.63 143.84 183.61 148.15 183.53 152.46 C 192.27 152.35 201.02 152.47 209.76 152.39 C 209.63 161.12 209.79 169.86 209.67 178.60 C 213.98 178.55 218.29 178.56 222.60 178.59 C 222.44 169.85 222.60 161.10 222.51 152.36 C 231.26 152.50 240.01 152.35 248.75 152.44 C 248.66 148.14 248.63 143.84 248.78 139.55 C 240.01 139.62 231.24 139.47 222.47 139.63 C 222.68 130.87 222.41 122.11 222.63 113.36 C 218.30 113.37 213.97 113.40 209.65 113.34 Z" />
<path fill="#ffffff" opacity="1.00" d=" M 105.46 66.73 C 113.37 63.96 122.44 65.79 128.83 71.14 C 138.15 78.81 143.03 90.54 145.52 102.07 C 147.15 110.66 147.89 120.38 143.01 128.10 C 139.18 133.90 132.74 137.60 126.10 139.23 C 117.35 140.94 108.32 136.90 102.56 130.36 C 94.96 121.77 91.04 110.49 89.56 99.25 C 88.91 92.14 89.10 84.65 92.18 78.07 C 94.72 72.63 99.67 68.37 105.46 66.73 Z" />
<path fill="#ffffff" opacity="1.00" d=" M 113.03 182.49 C 119.44 181.65 125.93 180.94 132.39 181.62 C 140.94 187.92 150.26 193.63 156.85 202.15 C 164.15 211.71 162.31 226.48 153.41 234.40 C 144.93 242.13 132.98 243.96 121.93 244.19 C 108.88 243.81 94.85 241.24 84.89 232.14 C 77.91 226.05 74.32 216.15 76.42 207.04 C 77.74 199.74 82.94 193.65 89.21 189.95 C 96.40 185.54 104.76 183.58 113.03 182.49 Z" />
</g>
</svg>
