<?xml version="1.0" encoding="UTF-8" ?>
<!DOCTYPE svg PUBLIC "-//W3C//DTD SVG 1.1//EN" "http://www.w3.org/Graphics/SVG/1.1/DTD/svg11.dtd">
<svg width="300pt" height="300pt" viewBox="0 0 300 300" version="1.1" xmlns="http://www.w3.org/2000/svg">
<g id="#ffffffff">
<path fill="#ffffff" opacity="1.00" d=" M 0.55 34.03 C 0.61 16.35 16.32 0.65 33.99 0.55 C 111.33 0.53 188.66 0.53 266.00 0.54 C 282.68 0.60 297.65 14.41 299.45 30.92 C 299.59 38.14 299.86 52.57 300.00 59.79 L 300.00 233.08 C 298.26 246.30 301.14 259.82 298.74 272.95 C 295.66 286.83 283.25 297.87 269.13 299.46 C 261.90 299.59 247.44 299.86 240.21 300.00 L 66.99 300.00 C 58.01 299.87 40.07 299.61 31.10 299.48 C 14.53 297.73 0.60 282.76 0.55 266.02 C 0.53 188.69 0.53 111.36 0.55 34.03 M 217.22 35.22 C 212.02 35.98 207.70 40.73 207.60 46.00 C 207.56 57.69 207.60 69.38 207.58 81.06 C 207.42 87.12 212.87 92.64 218.93 92.56 C 230.64 92.56 242.35 92.59 254.07 92.55 C 260.04 92.47 265.20 87.06 265.15 81.10 C 265.16 69.68 265.14 58.26 265.15 46.84 C 265.37 40.79 260.16 35.07 254.03 35.11 C 241.76 35.16 229.48 34.95 217.22 35.22 M 138.42 93.74 C 122.78 96.87 108.73 106.95 100.64 120.68 C 91.12 136.36 89.95 156.70 97.49 173.41 C 103.35 186.67 114.42 197.52 127.79 203.12 C 141.09 208.74 156.52 209.07 170.04 204.03 C 182.31 199.52 192.89 190.65 199.55 179.41 C 206.78 167.42 209.24 152.69 206.51 138.97 C 203.52 123.07 193.30 108.76 179.36 100.58 C 167.22 93.24 152.27 90.87 138.42 93.74 M 35.03 127.16 C 35.20 169.45 35.04 211.75 35.11 254.05 C 35.06 260.18 40.81 265.29 46.82 265.13 C 115.60 265.13 184.38 265.13 253.16 265.14 C 259.23 265.36 264.92 260.31 265.12 254.18 C 265.19 211.82 265.12 169.47 265.15 127.11 C 256.49 127.02 247.83 127.29 239.18 126.96 C 245.12 150.03 241.89 175.33 229.87 195.94 C 218.75 215.31 200.39 230.43 179.15 237.39 C 158.58 244.33 135.54 243.60 115.45 235.34 C 93.25 226.44 74.91 208.44 65.53 186.45 C 57.54 167.93 55.76 146.65 61.15 127.18 C 52.44 127.05 43.74 127.09 35.03 127.16 Z" />
</g>
</svg>
