<?xml version="1.0" encoding="UTF-8" ?>
<!DOCTYPE svg PUBLIC "-//W3C//DTD SVG 1.1//EN" "http://www.w3.org/Graphics/SVG/1.1/DTD/svg11.dtd">
<svg width="220pt" height="219pt" viewBox="0 0 220 219" version="1.1" xmlns="http://www.w3.org/2000/svg">
<g id="#ffffffff">
<path fill="#ffffff" opacity="1.00" d=" M 14.94 0.00 L 204.34 0.00 C 210.33 0.21 215.96 4.00 218.43 9.45 C 220.35 13.34 219.52 17.85 220.00 22.02 L 220.00 193.94 C 219.28 199.11 220.77 204.76 218.39 209.63 C 215.94 214.95 210.47 218.66 204.61 219.00 L 15.31 219.00 C 7.43 218.79 0.35 212.11 0.00 204.17 L 0.00 14.92 C 0.28 7.06 7.17 0.45 14.94 0.00 M 43.53 30.80 C 34.22 33.31 27.98 43.67 30.35 53.06 C 32.11 61.97 41.02 68.71 50.09 67.81 C 60.89 67.59 69.64 56.55 67.60 45.97 C 66.17 35.02 54.03 27.44 43.53 30.80 M 123.00 88.93 C 120.58 91.40 117.92 94.07 117.10 97.53 C 116.61 92.41 117.14 87.27 116.82 82.15 C 106.43 81.84 96.00 82.30 85.59 81.95 C 85.56 116.88 85.53 151.82 85.61 186.75 C 96.50 186.55 107.39 186.67 118.27 186.68 C 118.15 170.43 118.25 154.18 118.22 137.93 C 118.34 130.52 118.11 122.60 121.94 115.96 C 126.48 107.99 137.61 106.43 145.52 109.68 C 152.91 113.19 154.30 122.30 154.54 129.61 C 154.69 148.64 154.58 167.68 154.60 186.71 C 165.49 186.63 176.40 186.57 187.29 186.74 C 187.29 165.82 187.37 144.89 187.25 123.97 C 186.74 112.56 185.48 100.22 178.11 90.97 C 171.67 82.82 160.93 79.73 150.92 79.49 C 140.87 78.83 130.37 81.89 123.00 88.93 M 32.51 186.77 C 43.43 186.56 54.36 186.65 65.29 186.72 C 65.30 151.79 65.30 116.86 65.29 81.92 C 54.36 81.93 43.43 81.93 32.49 81.92 C 32.45 116.87 32.42 151.82 32.51 186.77 Z" />
</g>
</svg>
