<?xml version="1.0" encoding="UTF-8" ?>
<!DOCTYPE svg PUBLIC "-//W3C//DTD SVG 1.1//EN" "http://www.w3.org/Graphics/SVG/1.1/DTD/svg11.dtd">
<svg width="300pt" height="300pt" viewBox="0 0 300 300" version="1.1" xmlns="http://www.w3.org/2000/svg">
<g id="#ffffffff">
<path fill="#ffffff" opacity="1.00" d=" M 218.92 66.96 C 225.30 62.65 232.52 59.48 240.14 58.23 C 248.00 58.14 256.12 57.36 263.54 60.57 C 272.76 63.98 281.38 69.91 286.72 78.30 C 291.05 84.07 293.48 91.01 294.89 98.02 C 294.52 101.34 296.36 104.51 295.54 107.80 C 294.67 110.91 295.15 114.22 294.09 117.29 C 290.44 132.35 279.21 145.48 264.47 150.58 C 250.13 156.05 233.22 154.28 220.43 145.70 C 211.22 139.23 203.97 129.85 200.88 118.93 C 198.65 110.35 198.66 101.30 200.82 92.71 C 203.97 82.48 210.21 73.23 218.92 66.96 Z" />
<path fill="#ffffff" opacity="1.00" d=" M 119.51 81.22 C 130.05 75.57 142.97 74.57 154.24 78.59 C 168.14 83.28 179.37 95.51 182.22 109.99 C 183.15 112.26 182.18 114.88 183.40 117.06 C 183.43 119.01 183.82 121.09 182.83 122.90 C 182.29 142.24 165.92 159.41 146.89 161.93 C 130.98 164.88 113.76 157.73 104.54 144.42 C 99.60 138.32 97.78 130.49 96.43 122.96 C 95.82 111.75 99.19 100.19 106.56 91.60 C 110.44 87.65 114.34 83.49 119.51 81.22 Z" />
<path fill="#ffffff" opacity="1.00" d=" M 17.51 101.53 C 31.36 89.73 53.60 89.74 67.42 101.57 C 72.34 106.13 77.00 111.32 79.09 117.82 C 80.36 120.33 80.29 123.21 81.23 125.80 C 81.38 132.07 81.75 138.58 79.31 144.50 C 75.35 155.76 66.03 165.25 54.44 168.53 C 47.66 170.99 40.07 171.21 33.12 169.27 C 18.49 166.19 6.58 153.46 4.12 138.79 C 3.26 134.06 3.24 128.90 4.20 124.18 C 4.22 121.91 5.29 119.87 5.97 117.76 C 7.77 111.18 12.71 106.12 17.51 101.53 Z" />
<path fill="#ffffff" opacity="1.00" d=" M 235.20 165.15 C 241.02 163.45 247.14 164.18 253.11 164.11 C 265.14 165.38 276.66 171.22 284.85 180.12 C 293.19 188.70 298.19 200.07 300.00 211.82 L 300.00 238.04 C 299.46 239.31 298.87 240.57 298.33 241.85 C 264.44 241.85 230.54 241.80 196.65 241.88 C 195.59 239.71 194.13 237.53 194.23 235.01 C 194.36 225.03 193.58 214.87 196.18 205.11 C 200.65 186.09 216.04 169.71 235.20 165.15 Z" />
<path fill="#ffffff" opacity="1.00" d=" M 122.69 174.80 C 138.75 168.00 158.65 171.61 171.20 183.78 C 178.22 190.23 183.66 198.73 185.77 208.07 C 188.23 216.83 187.70 226.03 187.79 235.07 C 188.02 237.60 186.25 239.62 185.39 241.85 C 154.88 241.82 124.37 241.85 93.86 241.84 C 93.56 240.30 92.93 238.87 92.12 237.55 C 92.20 228.34 91.58 219.08 93.44 210.00 C 96.80 194.56 107.92 180.70 122.69 174.80 Z" />
<path fill="#ffffff" opacity="1.00" d=" M 22.51 183.41 C 31.66 178.67 42.56 176.80 52.58 179.67 C 64.71 182.48 74.88 191.52 80.42 202.49 C 84.42 209.26 85.10 217.26 85.63 224.93 C 85.40 230.59 86.50 236.51 84.12 241.86 C 56.33 241.83 28.54 241.82 0.75 241.87 C 0.56 241.20 0.19 239.88 0.00 239.22 L 0.00 215.32 C 2.54 202.11 10.84 190.13 22.51 183.41 Z" />
</g>
</svg>
