<?xml version="1.0" encoding="UTF-8" ?>
<!DOCTYPE svg PUBLIC "-//W3C//DTD SVG 1.1//EN" "http://www.w3.org/Graphics/SVG/1.1/DTD/svg11.dtd">
<svg width="220pt" height="221pt" viewBox="0 0 220 221" version="1.1" xmlns="http://www.w3.org/2000/svg">
<g id="#ffffffff">
<path fill="#ffffff" opacity="1.00" d=" M 63.87 10.94 C 79.45 3.61 96.83 0.13 114.02 0.60 C 136.48 1.78 158.72 9.46 176.52 23.36 C 201.09 42.13 217.28 71.71 218.96 102.67 C 219.89 107.69 219.83 112.86 218.94 117.88 C 217.71 139.88 209.17 161.30 195.43 178.48 C 181.54 196.03 162.06 209.05 140.59 215.32 C 130.68 218.30 120.32 219.47 110.01 219.93 C 99.61 219.46 89.17 218.25 79.16 215.28 C 84.42 207.28 88.67 198.50 90.90 189.17 C 93.17 180.19 95.58 171.25 97.69 162.24 C 102.16 169.69 110.65 173.82 118.98 175.20 C 132.07 176.81 145.74 173.20 156.24 165.19 C 170.46 154.43 178.83 137.45 181.93 120.17 C 184.21 107.05 185.00 93.13 180.32 80.43 C 174.17 62.92 159.67 48.88 142.43 42.31 C 129.70 37.17 115.63 36.48 102.12 37.91 C 84.56 39.77 67.41 47.36 55.01 60.06 C 42.42 72.94 34.84 90.91 35.59 109.00 C 36.28 121.69 40.17 135.28 50.48 143.51 C 53.67 145.82 57.20 148.62 61.32 148.51 C 64.08 147.05 64.29 143.72 65.07 141.05 C 65.63 138.33 66.88 135.64 66.48 132.81 C 64.63 129.59 61.86 126.94 60.42 123.47 C 56.24 114.25 56.90 103.63 59.44 94.06 C 63.26 80.06 73.26 67.82 86.47 61.69 C 100.30 55.27 116.73 54.50 131.07 59.71 C 140.94 63.30 149.32 70.97 153.24 80.77 C 157.90 91.81 156.83 104.15 155.06 115.69 C 152.65 128.33 148.02 141.40 138.05 150.07 C 131.58 155.74 121.70 158.34 113.72 154.37 C 107.23 151.43 103.25 143.89 104.62 136.88 C 107.24 124.80 112.15 113.32 114.30 101.13 C 115.10 95.38 114.65 88.91 110.64 84.37 C 107.21 80.22 101.25 79.12 96.18 80.13 C 89.81 81.24 84.88 86.25 81.99 91.79 C 77.35 101.15 77.28 112.32 80.38 122.16 C 80.71 123.79 82.03 125.37 81.42 127.08 C 77.13 145.09 72.95 163.11 68.66 181.12 C 66.09 190.63 65.44 200.52 65.76 210.34 C 40.74 199.31 20.18 178.58 9.48 153.41 C -2.55 125.82 -2.40 93.27 9.98 65.83 C 20.54 41.84 40.06 21.92 63.87 10.94 Z" />
</g>
</svg>
