<?xml version="1.0" encoding="UTF-8" ?>
<!DOCTYPE svg PUBLIC "-//W3C//DTD SVG 1.1//EN" "http://www.w3.org/Graphics/SVG/1.1/DTD/svg11.dtd">
<svg width="300pt" height="300pt" viewBox="0 0 300 300" version="1.1" xmlns="http://www.w3.org/2000/svg">
<g id="#ffffffff">
<path fill="#ffffff" opacity="1.00" d=" M 167.07 28.99 C 167.83 26.48 170.24 24.63 172.82 24.34 C 193.35 29.68 214.12 34.04 234.71 39.18 C 237.50 34.05 241.88 29.68 247.43 27.64 C 255.29 24.51 264.78 26.23 271.06 31.88 C 277.20 37.20 280.24 45.91 278.51 53.87 C 276.99 61.91 270.85 68.85 263.05 71.34 C 255.18 74.14 245.89 71.99 239.87 66.24 C 235.58 62.30 233.00 56.69 232.55 50.90 C 213.99 46.51 195.39 42.25 176.86 37.74 C 170.10 59.00 163.48 80.32 156.62 101.55 C 188.57 102.64 221.04 110.97 247.49 129.42 C 254.37 120.94 266.03 116.66 276.73 119.12 C 289.91 121.76 300.35 134.43 299.87 147.95 C 300.26 159.92 292.13 171.03 281.22 175.49 C 285.16 190.69 281.63 207.18 273.50 220.43 C 262.47 238.37 244.69 251.14 225.78 259.78 C 206.43 268.74 185.30 273.10 164.19 275.15 C 139.27 276.85 114.00 273.98 90.18 266.41 C 67.15 258.88 44.81 246.43 29.82 226.97 C 18.56 212.49 12.95 192.92 17.79 174.92 C 8.27 170.73 1.24 161.29 0.34 150.89 C -1.10 138.71 6.05 126.20 17.23 121.20 C 28.84 115.55 43.95 118.87 52.09 128.90 C 78.95 110.49 111.80 102.30 144.07 101.49 C 151.84 77.36 159.39 53.15 167.07 28.99 M 99.21 150.13 C 89.73 151.75 81.95 160.37 81.57 170.03 C 80.93 177.73 84.94 185.53 91.46 189.63 C 98.49 194.26 108.27 194.14 115.20 189.37 C 122.45 184.59 126.29 175.20 124.25 166.72 C 122.04 155.71 110.25 147.76 99.21 150.13 M 193.28 150.11 C 184.39 151.60 176.97 159.17 175.72 168.09 C 174.26 176.37 178.35 185.22 185.46 189.65 C 193.16 194.72 204.13 194.01 211.07 187.92 C 217.01 182.99 219.92 174.72 218.30 167.17 C 216.32 155.99 204.45 147.75 193.28 150.11 M 101.35 222.99 C 97.55 224.73 96.78 230.42 100.04 233.05 C 110.53 243.41 125.65 246.93 139.89 248.07 C 153.52 248.86 167.48 248.44 180.60 244.34 C 188.20 241.87 195.61 238.03 201.00 232.02 C 203.93 228.64 201.29 222.90 196.99 222.46 C 192.70 221.80 190.42 226.31 187.08 228.09 C 174.34 236.13 158.58 236.52 143.99 236.19 C 131.51 235.52 117.91 233.41 108.50 224.43 C 106.70 222.50 103.75 221.73 101.35 222.99 Z" />
</g>
</svg>
