<?xml version="1.0" encoding="UTF-8" ?>
<!DOCTYPE svg PUBLIC "-//W3C//DTD SVG 1.1//EN" "http://www.w3.org/Graphics/SVG/1.1/DTD/svg11.dtd">
<svg width="220pt" height="220pt" viewBox="0 0 220 220" version="1.1" xmlns="http://www.w3.org/2000/svg">
<g id="#ffffffff">
<path fill="#ffffff" opacity="1.00" d=" M 28.48 9.64 C 47.38 -2.78 73.02 -2.91 92.56 8.18 C 103.89 5.81 115.68 6.23 127.09 7.88 C 130.09 8.56 133.11 9.14 136.11 9.81 C 168.59 18.11 196.10 43.22 207.31 74.81 C 210.38 83.19 212.10 92.00 213.14 100.85 C 213.45 106.93 213.43 113.04 213.14 119.12 C 212.59 122.02 212.46 124.99 211.81 127.88 C 224.49 149.45 222.01 178.70 205.74 197.75 C 203.40 200.72 200.73 203.43 197.74 205.74 C 195.49 207.53 193.18 209.22 190.74 210.73 C 172.15 222.51 146.95 222.94 127.99 211.77 C 111.31 214.83 93.89 213.49 77.76 208.27 C 76.79 207.92 75.82 207.57 74.85 207.24 C 72.89 206.56 71.00 205.75 69.08 205.00 C 50.75 197.06 34.82 183.73 23.79 167.08 C 14.16 152.87 8.64 136.14 6.87 119.12 C 6.56 113.04 6.56 106.94 6.86 100.87 C 7.40 97.95 7.52 94.98 8.19 92.08 C 0.88 79.83 -1.22 65.01 0.90 51.03 C 3.77 34.20 13.96 18.68 28.48 9.64 M 82.09 48.08 C 72.18 51.76 63.11 59.14 59.68 69.40 C 56.79 78.46 56.76 88.74 60.70 97.50 C 64.85 106.78 74.21 112.30 83.51 115.36 C 96.77 119.17 110.28 122.01 123.56 125.72 C 129.19 127.20 134.06 131.98 134.24 138.01 C 133.97 144.79 128.87 150.23 122.96 152.97 C 121.94 153.32 120.92 153.69 119.91 154.06 C 108.87 157.03 95.38 155.49 87.43 146.56 C 82.79 142.06 80.24 135.15 73.89 132.64 C 69.32 131.64 63.83 131.74 60.39 135.38 C 55.73 139.35 56.00 146.29 58.26 151.48 C 62.39 161.17 71.59 167.51 81.04 171.42 C 96.70 177.08 113.94 177.63 130.17 174.21 C 142.78 171.13 154.92 163.49 160.30 151.26 C 163.91 142.21 164.28 132.01 161.19 122.76 C 158.48 115.78 153.30 109.93 146.86 106.17 C 137.29 100.19 125.87 98.97 115.14 96.35 C 107.43 94.45 99.36 93.38 92.21 89.72 C 89.06 88.18 86.97 85.26 85.76 82.04 C 85.09 75.26 89.80 69.02 96.14 66.97 C 101.63 65.45 107.45 65.01 113.07 66.05 C 119.12 66.72 124.98 69.39 129.20 73.83 C 133.13 77.42 136.16 82.60 141.62 84.01 C 147.65 85.32 155.08 82.66 157.32 76.53 C 158.44 71.80 157.17 66.75 154.33 62.85 C 149.22 55.50 140.89 51.41 132.84 48.09 C 128.97 46.73 124.99 45.73 121.00 44.82 C 108.03 42.67 94.47 43.56 82.09 48.08 Z" />
</g>
</svg>
