<?xml version="1.0" encoding="UTF-8" ?>
<!DOCTYPE svg PUBLIC "-//W3C//DTD SVG 1.1//EN" "http://www.w3.org/Graphics/SVG/1.1/DTD/svg11.dtd">
<svg width="300pt" height="300pt" viewBox="0 0 300 300" version="1.1" xmlns="http://www.w3.org/2000/svg">
<g id="#ffffffff">
<path fill="#ffffff" opacity="1.00" d=" M 23.43 8.29 C 26.94 5.19 31.51 3.82 35.97 2.74 C 110.33 2.54 184.68 2.73 259.04 2.65 C 266.48 2.32 274.20 5.17 279.18 10.82 C 284.57 16.80 286.85 25.08 286.64 33.01 C 286.53 65.21 286.82 97.41 286.49 129.61 C 288.46 128.29 290.44 126.35 293.02 126.61 C 296.95 126.02 300.30 130.17 299.60 133.93 C 298.77 138.97 296.24 143.50 293.86 147.95 C 282.72 167.52 264.94 182.71 245.08 193.00 C 248.80 204.29 250.64 216.16 251.26 228.00 C 252.08 244.06 248.17 260.64 238.77 273.84 C 229.99 286.40 215.72 295.27 200.35 296.55 L 200.60 297.39 C 197.14 297.39 193.69 297.57 190.23 297.52 L 190.60 296.69 C 181.57 296.44 172.51 292.21 167.06 284.91 C 162.71 279.10 160.65 271.80 160.56 264.60 C 160.33 253.92 160.66 243.24 160.38 232.56 C 176.72 228.66 191.66 218.77 201.20 204.90 C 202.12 202.87 198.93 200.69 197.40 202.44 C 186.81 210.56 173.02 213.06 159.94 212.81 C 152.94 212.87 146.14 210.95 139.49 208.97 C 139.51 226.97 139.51 244.96 139.49 262.96 C 139.47 270.19 137.89 277.64 133.77 283.69 C 128.82 291.12 120.23 295.80 111.39 296.52 L 111.58 297.37 C 107.50 297.55 103.42 297.47 99.34 297.39 L 99.65 296.55 C 84.72 295.38 70.76 287.04 61.95 275.03 C 51.95 261.66 47.90 244.53 48.67 228.03 C 49.33 216.16 51.22 204.33 54.81 192.99 C 32.44 181.31 12.42 163.37 2.14 139.96 C 0.60 136.33 -1.05 131.37 2.30 128.22 C 5.51 125.05 10.42 126.93 13.40 129.45 C 13.24 97.28 13.39 65.11 13.32 32.93 C 13.16 23.85 16.21 14.20 23.43 8.29 M 33.71 23.76 C 30.63 27.39 30.43 32.46 30.42 36.99 C 30.51 72.77 30.26 108.59 30.54 144.36 C 45.84 155.75 64.08 163.00 82.89 165.93 C 94.21 167.75 105.70 167.58 117.11 167.08 C 124.56 166.14 133.00 166.87 138.71 172.28 C 145.98 179.11 153.79 185.72 163.19 189.41 C 162.90 183.51 163.06 176.87 167.34 172.29 C 172.50 166.63 180.89 166.24 188.00 167.02 C 197.68 167.55 207.45 167.73 217.09 166.52 C 235.96 164.34 254.13 157.10 269.57 146.08 C 269.46 109.04 269.57 72.00 269.52 34.97 C 269.43 31.01 269.01 26.71 266.38 23.55 C 263.84 20.57 259.73 19.63 255.98 19.57 C 185.65 19.56 115.33 19.58 45.00 19.56 C 40.95 19.65 36.52 20.61 33.71 23.76 Z" />
<path fill="#ffffff" opacity="1.00" d=" M 93.54 82.74 C 109.39 78.82 127.03 87.02 134.60 101.41 C 140.76 112.58 140.54 127.07 133.98 138.04 C 130.25 144.45 124.55 149.68 117.85 152.86 C 106.63 158.31 92.64 157.60 82.12 150.87 C 68.00 142.39 60.88 123.92 66.09 108.21 C 69.87 95.64 80.73 85.59 93.54 82.74 Z" />
<path fill="#ffffff" opacity="1.00" d=" M 189.58 82.77 C 204.94 78.93 222.03 86.44 229.98 100.04 C 236.00 110.00 237.04 122.84 232.36 133.54 C 228.20 143.72 219.24 151.72 208.75 154.93 C 194.20 159.49 177.28 154.01 168.22 141.75 C 161.79 133.40 159.20 122.27 161.29 111.94 C 163.95 97.78 175.53 85.91 189.58 82.77 Z" />
</g>
</svg>
