<?xml version="1.0" encoding="UTF-8" ?>
<!DOCTYPE svg PUBLIC "-//W3C//DTD SVG 1.1//EN" "http://www.w3.org/Graphics/SVG/1.1/DTD/svg11.dtd">
<svg width="300pt" height="300pt" viewBox="0 0 300 300" version="1.1" xmlns="http://www.w3.org/2000/svg">
<g id="#ffffffff">
<path fill="#ffffff" opacity="1.00" d=" M 141.49 8.38 C 147.80 8.35 154.13 8.56 160.44 8.23 L 158.17 9.39 C 170.51 9.84 182.68 13.52 193.52 19.38 C 209.64 28.18 222.13 43.10 228.66 60.19 C 232.84 72.99 232.51 86.68 232.25 99.98 C 231.75 108.12 231.56 116.29 230.73 124.41 C 236.16 126.83 242.05 124.10 247.13 122.04 C 253.00 119.21 260.17 120.80 265.19 124.65 C 268.66 127.24 270.78 131.97 269.24 136.21 C 267.41 141.30 262.56 144.44 257.91 146.69 C 250.66 150.39 241.86 151.02 235.59 156.57 C 232.29 159.37 232.61 164.27 234.20 167.91 C 237.60 175.99 242.29 183.49 247.70 190.37 C 258.31 203.87 272.86 214.92 289.84 218.74 C 292.66 219.49 296.09 219.43 298.14 221.86 C 300.66 224.42 300.36 228.64 298.42 231.45 C 295.72 235.51 291.20 237.78 286.83 239.60 C 278.12 243.22 268.71 244.50 259.58 246.53 C 257.66 251.57 257.66 257.23 255.16 262.06 C 252.60 266.27 247.06 265.80 242.89 264.93 C 232.72 262.80 222.06 262.08 211.87 264.46 C 201.99 267.30 194.34 274.56 185.80 279.92 C 177.56 285.29 168.30 289.70 158.37 290.49 C 158.39 290.72 158.41 291.20 158.42 291.43 C 152.80 291.71 147.17 291.71 141.55 291.43 C 141.57 291.19 141.60 290.70 141.61 290.46 C 125.22 289.30 112.21 278.35 99.12 269.61 C 86.85 261.08 70.87 262.14 56.93 265.10 C 52.80 266.06 47.23 266.38 44.79 262.13 C 42.38 257.27 42.32 251.64 40.43 246.60 C 29.93 244.25 18.97 242.80 9.26 237.82 C 5.04 235.71 0.89 232.34 0.00 227.45 L 0.00 225.73 C 0.52 222.31 3.48 219.73 6.88 219.43 C 32.86 214.88 53.08 194.30 64.28 171.35 C 66.46 167.08 68.74 161.08 64.88 157.07 C 58.09 150.54 47.92 150.35 40.08 145.64 C 34.80 142.90 29.07 137.69 30.49 131.11 C 32.57 123.67 41.54 119.61 48.75 121.16 C 55.21 123.53 62.31 127.26 69.26 124.46 C 67.99 105.67 66.15 86.59 69.34 67.89 C 72.24 53.41 80.83 40.50 91.36 30.38 C 104.85 17.75 123.04 10.43 141.41 9.42 C 141.43 9.16 141.47 8.64 141.49 8.38 Z" />
</g>
</svg>
