<?xml version="1.0" encoding="UTF-8" ?>
<!DOCTYPE svg PUBLIC "-//W3C//DTD SVG 1.1//EN" "http://www.w3.org/Graphics/SVG/1.1/DTD/svg11.dtd">
<svg width="96pt" height="96pt" viewBox="0 0 96 96" version="1.1" xmlns="http://www.w3.org/2000/svg">
<g id="#ffffffff">
<path fill="#ffffff" opacity="1.00" d=" M 49.03 27.62 C 56.93 24.65 66.60 26.22 72.57 32.38 C 75.53 35.28 77.10 39.24 77.91 43.24 C 83.97 41.90 90.72 45.35 92.46 51.43 C 94.89 58.37 89.44 66.56 82.09 66.92 C 71.71 67.08 61.32 67.01 50.93 66.96 C 49.27 67.23 48.83 65.27 49.00 64.04 C 49.01 51.90 48.97 39.76 49.03 27.62 Z" />
<path fill="#ffffff" opacity="1.00" d=" M 43.20 41.98 C 43.53 37.51 43.13 32.81 44.98 28.61 C 46.69 32.85 46.50 37.50 46.79 41.98 C 46.97 49.67 47.34 57.40 46.46 65.05 C 46.47 66.66 44.84 69.14 43.72 66.65 C 42.56 58.49 43.06 50.19 43.20 41.98 Z" />
<path fill="#ffffff" opacity="1.00" d=" M 31.37 42.97 C 31.62 39.68 31.41 36.22 33.00 33.19 C 33.86 35.32 34.22 37.60 34.35 39.88 C 34.90 47.94 35.38 56.06 34.56 64.12 C 34.54 65.68 33.70 67.02 33.00 68.35 C 32.64 67.75 31.94 66.54 31.59 65.94 C 30.63 58.32 31.03 50.62 31.37 42.97 Z" />
<path fill="#ffffff" opacity="1.00" d=" M 25.68 39.03 C 25.67 37.34 26.33 35.77 27.01 34.26 C 28.62 37.59 28.14 41.36 28.49 44.93 C 29.00 52.25 29.21 59.65 28.11 66.92 C 27.55 67.14 26.44 67.56 25.88 67.78 C 24.54 58.24 25.23 48.60 25.68 39.03 Z" />
<path fill="#ffffff" opacity="1.00" d=" M 37.34 43.96 C 37.66 41.02 37.36 37.78 39.09 35.20 C 41.46 44.59 41.14 54.51 40.55 64.12 C 40.70 65.78 39.20 69.52 37.67 66.63 C 36.63 59.13 36.96 51.50 37.34 43.96 Z" />
<path fill="#ffffff" opacity="1.00" d=" M 19.37 46.98 C 19.56 44.03 19.38 40.91 21.04 38.30 C 21.62 39.68 21.98 41.11 22.11 42.60 C 22.77 50.75 23.47 59.06 21.93 67.14 C 21.41 67.20 20.38 67.31 19.86 67.37 C 18.78 60.65 18.94 53.76 19.37 46.98 Z" />
<path fill="#ffffff" opacity="1.00" d=" M 7.62 47.90 C 7.63 46.25 8.31 44.72 8.99 43.25 C 11.51 50.50 10.76 58.49 10.00 66.01 L 8.78 66.69 L 7.88 65.90 C 7.12 59.94 7.12 53.88 7.62 47.90 Z" />
<path fill="#ffffff" opacity="1.00" d=" M 14.20 45.32 C 14.58 45.36 15.35 45.43 15.73 45.46 C 16.95 52.57 16.81 59.86 16.12 67.02 L 14.89 67.61 L 13.74 67.00 C 13.29 59.80 12.90 52.45 14.20 45.32 Z" />
<path fill="#ffffff" opacity="1.00" d=" M 3.11 47.40 C 5.44 51.17 4.87 55.89 4.62 60.10 C 4.71 61.73 3.87 63.11 2.99 64.41 C 1.69 58.86 1.52 52.91 3.11 47.40 Z" />
</g>
</svg>
