<?xml version="1.0" encoding="UTF-8" ?>
<!DOCTYPE svg PUBLIC "-//W3C//DTD SVG 1.1//EN" "http://www.w3.org/Graphics/SVG/1.1/DTD/svg11.dtd">
<svg width="220pt" height="220pt" viewBox="0 0 220 220" version="1.1" xmlns="http://www.w3.org/2000/svg">
<g id="#ffffffff">
<path fill="#ffffff" opacity="1.00" d=" M 90.50 1.77 C 112.70 -2.09 136.12 0.70 156.52 10.40 C 179.42 21.05 198.40 39.88 209.21 62.71 C 219.54 84.05 222.37 108.78 217.70 131.98 C 212.62 157.16 198.30 180.29 178.13 196.17 C 158.68 211.59 133.85 220.32 108.98 219.78 C 88.39 219.88 67.91 213.52 50.61 202.42 C 30.01 189.22 14.04 168.96 6.10 145.82 C -2.00 122.50 -1.87 96.40 6.44 73.16 C 14.71 49.72 31.27 29.36 52.44 16.36 C 64.07 9.18 77.06 4.22 90.50 1.77 M 83.34 58.35 C 69.02 59.07 54.66 60.89 40.92 65.10 C 35.70 66.62 32.61 72.82 34.35 77.94 C 35.69 82.86 41.11 86.22 46.12 85.13 C 70.69 78.04 96.77 77.39 122.03 80.67 C 138.85 83.03 155.60 87.29 170.72 95.20 C 173.99 96.87 177.17 99.46 181.09 98.93 C 187.79 98.87 192.52 91.18 190.11 85.06 C 187.99 79.38 181.57 77.66 176.77 74.93 C 147.77 61.30 115.11 57.19 83.34 58.35 M 78.42 96.47 C 67.85 97.32 57.33 99.15 47.19 102.26 C 43.57 103.39 41.01 107.16 41.38 110.96 C 41.35 116.38 47.41 120.59 52.50 118.80 C 63.70 115.42 75.37 113.71 87.05 113.39 C 110.71 112.83 134.80 117.29 155.95 128.14 C 160.33 130.34 164.91 134.62 170.14 132.13 C 176.37 129.72 177.04 120.17 171.28 116.84 C 143.63 100.19 110.37 94.13 78.42 96.47 M 74.64 132.85 C 66.81 133.75 59.02 135.07 51.33 136.83 C 48.79 137.36 46.66 139.40 46.11 141.94 C 44.72 146.53 49.30 151.58 54.03 150.47 C 63.23 148.46 72.54 146.77 81.95 146.18 C 105.48 144.21 130.09 148.27 150.43 160.71 C 153.42 162.79 158.01 162.29 160.15 159.23 C 162.75 156.08 161.63 150.82 158.00 148.96 C 133.31 133.70 103.13 129.58 74.64 132.85 Z" />
</g>
</svg>
