<?xml version="1.0" encoding="UTF-8" ?>
<!DOCTYPE svg PUBLIC "-//W3C//DTD SVG 1.1//EN" "http://www.w3.org/Graphics/SVG/1.1/DTD/svg11.dtd">
<svg width="300pt" height="300pt" viewBox="0 0 300 300" version="1.1" xmlns="http://www.w3.org/2000/svg">
<g id="#ffffffff">
<path fill="#ffffff" opacity="1.00" d=" M 92.41 11.59 C 122.64 -1.08 157.06 -3.37 188.72 5.10 C 220.51 13.45 249.25 32.72 269.20 58.83 C 287.76 82.86 298.66 112.67 300.00 143.00 L 300.00 157.00 C 298.61 191.17 284.92 224.61 262.07 250.03 C 235.63 279.89 196.89 298.43 157.01 300.00 L 143.72 300.00 C 111.49 298.80 79.82 286.67 54.97 266.13 C 30.13 245.83 12.06 217.36 4.45 186.18 C 1.74 175.52 0.54 164.55 0.00 153.59 L 0.00 153.23 C -0.32 127.53 5.64 101.70 17.93 79.08 C 34.07 48.95 60.82 24.67 92.41 11.59 M 127.02 90.88 C 116.86 97.70 110.21 109.63 110.20 121.92 C 110.20 140.27 110.22 158.62 110.19 176.97 C 110.15 181.00 107.07 184.74 103.14 185.59 C 97.89 186.98 92.07 182.54 92.13 177.10 C 92.11 169.16 92.14 161.22 92.13 153.29 C 82.30 153.25 72.47 153.34 62.64 153.24 C 62.58 161.48 62.61 169.72 62.63 177.95 C 62.78 191.58 70.91 204.66 82.96 210.99 C 93.58 216.75 106.98 217.02 117.81 211.65 C 128.50 206.52 136.53 196.16 138.72 184.49 C 139.70 180.05 139.41 175.49 139.44 170.98 C 139.45 154.99 139.43 139.00 139.45 123.01 C 139.32 118.66 142.78 114.59 147.07 113.97 C 152.04 112.99 157.20 117.09 157.53 122.12 C 157.60 125.86 157.59 129.60 157.45 133.34 C 161.32 135.35 165.33 137.07 169.25 138.97 C 175.12 137.30 180.95 135.48 186.80 133.74 C 186.61 126.52 187.55 119.11 185.38 112.09 C 181.83 99.39 171.26 88.94 158.49 85.62 C 147.89 82.74 136.08 84.65 127.02 90.88 M 204.81 153.37 C 204.92 161.60 204.83 169.83 204.86 178.06 C 204.92 182.34 201.33 186.27 197.11 186.79 C 191.94 187.67 186.84 183.21 186.84 178.00 C 186.83 169.87 186.71 161.74 186.92 153.62 C 181.03 155.34 175.18 157.16 169.29 158.89 C 165.41 156.99 161.42 155.31 157.61 153.29 C 157.40 158.50 157.59 163.72 157.52 168.94 C 157.63 174.33 157.10 179.80 158.35 185.10 C 160.62 196.30 168.30 206.20 178.48 211.34 C 187.45 215.97 198.27 216.78 207.86 213.66 C 220.22 209.73 230.17 199.13 233.25 186.52 C 235.58 175.64 233.85 164.42 234.53 153.39 C 224.63 153.18 214.71 153.23 204.81 153.37 Z" />
</g>
</svg>
