<?xml version="1.0" encoding="UTF-8" ?>
<!DOCTYPE svg PUBLIC "-//W3C//DTD SVG 1.1//EN" "http://www.w3.org/Graphics/SVG/1.1/DTD/svg11.dtd">
<svg width="300pt" height="300pt" viewBox="0 0 300 300" version="1.1" xmlns="http://www.w3.org/2000/svg">
<g id="#ffffffff">
<path fill="#ffffff" opacity="1.00" d=" M 26.47 0.00 L 293.49 0.00 C 293.61 60.87 293.46 121.74 293.56 182.60 C 267.21 208.54 241.35 234.99 214.97 260.88 C 195.46 260.69 175.95 260.78 156.45 260.83 C 143.50 273.96 130.43 286.97 117.39 300.00 L 78.40 300.00 C 78.25 286.92 78.37 273.84 78.33 260.76 C 54.36 260.84 30.39 260.72 6.42 260.82 C 6.47 191.86 6.45 122.89 6.43 53.92 C 6.33 51.62 7.76 49.67 8.52 47.59 C 14.49 31.72 20.29 15.79 26.47 0.00 M 52.34 26.16 C 52.48 89.18 52.20 152.22 52.48 215.24 C 72.00 215.05 91.52 215.19 111.03 215.16 C 110.97 228.22 111.36 241.30 110.82 254.34 C 124.01 241.34 137.09 228.21 150.12 215.05 C 174.07 215.26 198.02 215.16 221.97 215.09 C 236.88 199.63 252.62 184.89 267.31 169.26 C 267.27 121.53 267.36 73.78 267.27 26.05 C 195.63 26.30 123.98 26.08 52.34 26.16 Z" />
<path fill="#ffffff" opacity="1.00" d=" M 124.16 78.26 C 132.81 78.37 141.46 78.30 150.10 78.30 C 150.18 104.34 150.01 130.38 150.19 156.41 C 141.53 156.73 132.85 156.37 124.18 156.60 C 124.07 130.49 124.12 104.37 124.16 78.26 Z" />
<path fill="#ffffff" opacity="1.00" d=" M 195.66 78.17 C 204.33 78.45 213.02 78.33 221.70 78.23 C 221.80 104.35 221.79 130.48 221.71 156.60 C 212.98 156.45 204.25 156.56 195.52 156.54 C 195.66 130.42 195.40 104.29 195.66 78.17 Z" />
</g>
</svg>
