<?xml version="1.0" encoding="UTF-8" ?>
<!DOCTYPE svg PUBLIC "-//W3C//DTD SVG 1.1//EN" "http://www.w3.org/Graphics/SVG/1.1/DTD/svg11.dtd">
<svg width="300pt" height="300pt" viewBox="0 0 300 300" version="1.1" xmlns="http://www.w3.org/2000/svg">
<g id="#ffffffff">
<path fill="#ffffff" id="twitter" opacity="1.00" d=" M 165.56 44.63 C 176.90 33.97 192.38 27.74 207.98 28.03 C 224.80 27.82 241.32 35.28 252.81 47.47 C 266.53 44.55 279.85 39.59 291.90 32.36 C 287.33 46.37 277.79 58.91 264.96 66.30 C 277.05 65.42 288.79 61.48 300.00 56.96 L 300.00 57.27 C 291.52 69.35 281.26 80.22 269.28 88.89 C 272.34 153.19 237.54 218.45 181.14 250.07 C 148.60 268.56 109.94 274.96 72.95 270.66 C 47.04 267.65 22.12 258.22 0.00 244.55 L 0.00 244.29 C 32.09 248.07 65.68 238.99 90.95 218.74 C 79.17 218.65 67.49 214.84 57.75 208.24 C 46.31 200.57 37.74 188.92 33.46 175.86 C 42.58 177.80 52.15 177.35 61.15 175.05 C 56.80 173.68 52.28 172.79 48.18 170.70 C 26.29 161.06 11.33 137.71 12.05 113.76 C 20.51 118.22 30.11 121.52 39.72 121.20 C 26.73 112.89 17.53 99.09 14.08 84.11 C 10.55 68.96 13.00 52.49 20.94 39.10 C 51.46 77.35 98.90 101.39 147.78 103.58 C 142.60 82.60 149.71 59.27 165.56 44.63 Z" />
</g>
</svg>

