<?xml version="1.0" encoding="UTF-8" ?>
<!DOCTYPE svg PUBLIC "-//W3C//DTD SVG 1.1//EN" "http://www.w3.org/Graphics/SVG/1.1/DTD/svg11.dtd">
<svg width="300pt" height="300pt" viewBox="0 0 300 300" version="1.1" xmlns="http://www.w3.org/2000/svg">
<g id="#ffffffff">
<path fill="#ffffff" opacity="1.00" d=" M 257.39 19.47 C 268.94 20.29 281.12 24.09 288.64 33.42 C 298.29 45.22 300.10 61.24 299.85 75.96 C 299.86 92.29 294.43 108.04 287.82 122.77 C 279.41 141.19 268.62 158.41 257.10 175.02 C 237.86 202.00 217.56 228.55 192.99 250.94 C 181.66 260.96 169.36 270.30 155.19 275.88 C 150.41 277.61 145.50 279.30 140.38 279.48 C 140.43 279.73 140.54 280.21 140.60 280.45 C 137.27 280.60 133.94 280.62 130.61 280.41 C 130.60 280.17 130.58 279.69 130.57 279.45 C 120.87 278.06 113.14 271.00 107.43 263.47 C 100.15 253.73 95.01 242.56 90.85 231.18 C 84.44 207.90 78.18 184.57 71.82 161.27 C 67.42 145.39 63.67 129.22 56.97 114.10 C 54.04 107.76 50.75 101.27 45.37 96.64 C 42.60 94.48 38.58 92.41 35.16 94.35 C 27.70 98.08 20.95 103.05 14.08 107.75 C 9.54 101.67 4.91 95.66 0.16 89.75 L 0.00 90.97 L 0.00 89.85 C 14.34 76.93 28.89 64.23 43.11 51.17 C 53.65 42.11 64.53 33.14 77.04 26.94 C 86.78 21.92 99.07 21.92 108.63 27.36 C 116.70 32.04 121.97 40.27 125.34 48.76 C 130.15 60.57 131.47 73.36 133.56 85.83 C 136.28 102.61 138.93 119.40 142.37 136.05 C 145.24 148.71 148.02 161.53 153.26 173.47 C 155.40 177.99 157.75 182.91 162.16 185.61 C 164.86 187.36 168.32 186.54 170.82 184.85 C 177.23 180.68 181.77 174.33 186.29 168.30 C 194.85 156.10 202.72 143.33 208.83 129.73 C 213.22 119.93 216.17 108.82 213.64 98.13 C 212.37 92.38 207.78 87.65 202.04 86.27 C 191.91 83.68 181.33 86.36 171.80 90.02 C 178.93 68.05 189.76 45.73 209.35 32.32 C 223.26 22.65 240.63 18.82 257.39 19.47 Z" />
</g>
</svg>
