<?xml version="1.0" encoding="UTF-8" ?>
<!DOCTYPE svg PUBLIC "-//W3C//DTD SVG 1.1//EN" "http://www.w3.org/Graphics/SVG/1.1/DTD/svg11.dtd">
<svg width="322pt" height="322pt" viewBox="0 0 322 322" version="1.1" xmlns="http://www.w3.org/2000/svg">
<g id="#ffffffff">
<path fill="#ffffff" opacity="1.00" d=" M 226.53 0.00 L 235.32 0.00 C 244.36 0.54 253.43 2.00 261.87 5.41 C 274.42 10.28 285.12 19.66 291.60 31.47 C 300.44 47.37 302.63 66.07 301.86 84.00 C 300.97 100.79 297.61 117.59 290.83 133.03 C 282.65 134.58 274.08 134.91 265.96 132.80 C 257.25 130.58 249.11 125.45 244.02 117.95 C 248.48 102.85 251.58 86.89 249.31 71.14 C 248.21 64.26 245.94 57.05 240.54 52.32 C 233.99 46.61 223.31 47.06 216.96 52.87 C 210.86 58.47 208.38 66.85 207.32 74.81 C 205.67 89.71 207.33 105.11 212.77 119.12 C 218.85 134.93 230.98 148.43 246.45 155.49 C 263.71 163.64 283.67 163.70 302.00 159.54 C 302.00 172.31 302.00 185.07 302.00 197.84 C 289.39 200.64 276.49 202.08 263.58 202.24 C 252.44 225.70 237.95 247.47 221.71 267.70 C 209.93 282.14 197.37 296.05 183.24 308.24 C 176.80 313.76 169.70 319.23 161.11 320.66 C 153.56 322.05 145.92 319.46 139.61 315.42 C 128.99 308.64 119.79 299.87 111.37 290.56 C 86.51 262.65 68.91 229.05 55.33 194.44 C 37.21 147.49 26.48 97.99 19.97 48.19 C 38.24 48.18 56.51 48.18 74.78 48.19 C 80.42 95.16 89.97 142.10 108.36 185.87 C 120.90 216.00 138.22 244.05 159.10 269.11 C 181.87 246.49 200.10 219.56 214.57 190.98 C 193.80 180.49 177.43 162.32 167.80 141.27 C 157.74 119.42 154.05 94.78 156.48 70.90 C 158.67 50.86 166.88 30.77 182.25 17.25 C 194.33 6.38 210.44 0.82 226.53 0.00 Z" />
</g>
</svg>
