<?xml version="1.0" encoding="UTF-8" ?>
<!DOCTYPE svg PUBLIC "-//W3C//DTD SVG 1.1//EN" "http://www.w3.org/Graphics/SVG/1.1/DTD/svg11.dtd">
<svg width="248pt" height="248pt" viewBox="0 0 248 248" version="1.1" xmlns="http://www.w3.org/2000/svg">
<g id="#ffffffff">
<path fill="#ffffff" opacity="1.00" d=" M 112.75 1.35 C 139.77 -1.41 167.43 5.88 190.10 20.72 C 176.12 16.64 161.49 21.78 148.92 27.91 C 140.11 32.33 131.64 37.52 123.94 43.69 C 112.77 34.98 100.37 27.72 87.04 22.85 C 77.74 19.70 67.42 17.65 57.81 20.71 C 74.21 9.95 93.18 3.07 112.75 1.35 Z" />
<path fill="#ffffff" opacity="1.00" d=" M 39.13 37.15 C 41.36 34.49 45.19 35.00 48.12 36.02 C 53.34 38.08 58.19 41.00 62.80 44.19 C 74.01 52.03 84.40 60.96 94.65 69.99 C 70.96 93.11 51.26 120.51 37.93 150.86 C 31.55 165.96 25.88 181.93 26.06 198.54 C 15.67 186.23 8.74 171.21 4.49 155.75 C -2.11 130.95 -0.45 104.06 9.25 80.30 C 15.82 63.93 26.21 49.13 39.13 37.15 Z" />
<path fill="#ffffff" opacity="1.00" d=" M 188.75 41.75 C 192.72 39.33 196.75 36.86 201.25 35.54 C 203.36 35.19 206.03 34.64 207.71 36.36 C 225.53 52.26 238.31 73.71 243.92 96.92 C 252.49 131.73 244.50 170.51 221.90 198.47 C 221.90 184.81 217.96 171.53 213.21 158.84 C 199.95 125.31 178.96 94.96 153.03 69.97 C 164.60 60.17 175.97 50.00 188.75 41.75 Z" />
<path fill="#ffffff" opacity="1.00" d=" M 81.72 137.72 C 95.59 123.64 109.84 109.94 123.94 96.10 C 141.40 113.30 159.06 130.31 176.08 147.94 C 186.24 160.24 196.26 172.82 204.00 186.82 C 207.38 193.55 211.34 201.10 209.45 208.83 C 208.67 212.11 206.18 214.57 203.75 216.74 C 185.18 233.65 161.06 244.24 136.09 246.76 C 101.86 250.56 66.36 238.29 41.54 214.47 C 38.79 211.37 37.28 207.13 37.90 202.98 C 38.82 196.74 41.48 190.93 44.55 185.48 C 51.32 173.64 59.63 162.76 68.23 152.21 C 72.27 146.97 77.11 142.44 81.72 137.72 Z" />
</g>
</svg>
