<?xml version="1.0" encoding="UTF-8" ?>
<!DOCTYPE svg PUBLIC "-//W3C//DTD SVG 1.1//EN" "http://www.w3.org/Graphics/SVG/1.1/DTD/svg11.dtd">
<svg width="220pt" height="220pt" viewBox="0 0 220 220" version="1.1" xmlns="http://www.w3.org/2000/svg">
<g id="#ffffffff">
<path fill="#ffffff" opacity="1.00" d=" M 39.00 34.16 C 79.30 32.17 119.70 31.60 160.03 33.28 C 170.71 33.82 181.46 33.69 192.08 35.19 C 198.77 36.01 205.09 39.41 209.56 44.45 C 214.81 50.77 216.66 59.12 217.97 67.04 C 218.82 76.38 219.66 85.74 220.00 95.12 L 220.00 124.06 C 219.71 133.05 218.82 142.00 218.12 150.96 C 217.35 156.95 215.95 162.90 213.49 168.44 C 209.70 177.26 200.60 183.17 191.17 184.09 C 179.17 185.58 167.06 185.36 155.01 186.15 C 115.99 187.21 76.91 186.93 37.93 184.90 C 28.19 183.99 17.31 182.52 10.67 174.49 C 3.16 164.71 2.19 151.77 1.44 139.90 C 0.01 125.99 0.48 111.99 0.41 98.03 C 0.43 89.32 1.42 80.66 1.94 71.98 C 2.57 64.53 4.02 57.06 7.16 50.23 C 9.70 44.44 14.73 40.05 20.40 37.42 C 26.21 34.75 32.75 34.73 39.00 34.16 M 87.57 76.29 C 87.74 96.89 87.64 117.50 87.62 138.11 C 103.36 129.76 119.24 121.68 135.03 113.42 C 138.92 111.32 143.08 109.68 146.74 107.16 C 126.94 97.02 107.23 86.69 87.57 76.29 Z" />
</g>
</svg>
