<?xml version="1.0" encoding="UTF-8" ?>
<!DOCTYPE svg PUBLIC "-//W3C//DTD SVG 1.1//EN" "http://www.w3.org/Graphics/SVG/1.1/DTD/svg11.dtd">
<svg width="480pt" height="480pt" viewBox="0 0 480 480" version="1.1" xmlns="http://www.w3.org/2000/svg">
<g>
<path fill="#fff" opacity="1.00" d=" M 237.57 0.00 L 242.40 0.00 C 248.91 0.52 255.46 0.68 261.94 1.64 C 294.22 5.60 325.26 18.89 350.49 39.41 C 377.86 61.48 398.36 91.96 408.38 125.68 C 413.55 142.77 415.88 160.67 415.81 178.50 C 414.67 216.11 402.23 252.36 386.08 286.00 C 375.10 308.92 362.12 330.83 348.12 352.03 C 326.71 384.05 302.90 414.47 276.98 442.97 C 265.19 455.66 253.38 468.47 240.00 479.52 C 226.62 468.45 214.78 455.67 202.99 442.96 C 182.55 420.54 163.49 396.87 145.79 372.22 C 122.83 340.00 102.09 306.00 86.42 269.60 C 74.65 241.77 65.58 212.29 64.43 181.90 C 63.54 174.60 64.68 167.30 64.98 160.00 C 67.49 132.06 76.86 104.76 92.07 81.18 C 110.99 51.62 138.96 27.93 171.30 14.25 C 192.19 5.19 214.88 0.85 237.57 0.00 M 163.03 54.17 C 132.93 73.13 110.25 103.58 100.97 137.95 C 96.36 154.22 95.15 171.30 96.38 188.13 C 99.30 219.24 110.50 248.91 124.21 276.76 C 142.30 313.13 165.17 346.92 190.10 378.92 C 205.78 398.85 222.29 418.16 239.99 436.33 C 253.76 422.25 266.75 407.41 279.25 392.19 C 308.44 356.34 335.11 318.15 355.81 276.72 C 369.49 248.84 380.71 219.18 383.63 188.05 C 384.77 172.27 383.79 156.28 379.80 140.93 C 371.76 108.33 351.70 78.98 324.52 59.32 C 299.94 41.42 269.52 31.40 239.07 32.00 C 212.29 31.80 185.62 39.87 163.03 54.17 Z" />
<path fill="#fff" opacity="1.00" d=" M 230.55 96.77 C 258.49 92.98 287.75 105.87 304.27 128.65 C 320.33 150.06 324.30 179.68 314.55 204.59 C 307.28 223.61 292.45 239.57 274.02 248.22 C 248.60 260.49 216.81 257.69 193.92 241.18 C 177.49 229.61 165.68 211.66 161.77 191.93 C 158.03 174.21 160.77 155.28 169.14 139.23 C 180.96 116.14 204.69 99.51 230.55 96.77 M 233.21 128.31 C 215.09 130.73 199.10 144.37 193.96 161.92 C 190.04 174.85 191.71 189.48 198.87 200.99 C 207.33 215.11 223.49 224.43 240.03 224.02 C 252.40 224.39 264.62 219.11 273.49 210.59 C 282.67 201.65 288.39 188.92 288.02 176.02 C 288.50 159.02 278.58 142.47 263.85 134.17 C 254.68 128.75 243.71 127.00 233.21 128.31 Z" />
</g>
</svg>
